<?xml version="1.0" standalone="no"?>
<!DOCTYPE svg PUBLIC "-//W3C//DTD SVG 1.1//EN" "http://www.w3.org/Graphics/SVG/1.1/DTD/svg11.dtd">
<svg width="100%" height="100%" viewBox="0 0 309 432" version="1.1" xmlns="http://www.w3.org/2000/svg" xmlns:xlink="http://www.w3.org/1999/xlink" xml:space="preserve" style="fill-rule:evenodd;clip-rule:evenodd;stroke-linejoin:round;stroke-miterlimit:1.41421;">
    <g transform="matrix(1,0,0,1,-100.49,-39.8227)">
        <g id="Script alt">
            <path d="M266.637,337.137L286.375,356.871L360.829,282.418L341.098,262.684L266.637,337.137ZM311.311,232.895L236.858,307.355L256.588,327.092L331.049,252.633L311.311,232.895ZM281.533,203.113L207.075,277.571L226.811,297.303L301.267,222.856L281.533,203.113ZM372.659,304.719L277.201,400.172C274.762,390.393 269.778,381.087 262.155,373.471L248.832,360.157L137.044,248.369C131.256,242.565 128.413,235.094 128.402,227.499C128.413,219.897 131.256,212.422 137.044,206.627C142.847,200.832 150.313,197.993 157.922,197.971C165.515,197.993 172.99,200.832 178.792,206.619C184.581,212.416 187.422,219.891 187.443,227.499C187.422,235.094 184.581,242.574 178.792,248.369L198.528,268.106L288.16,178.474L359.344,249.645L372.659,262.969C378.451,268.764 381.292,276.241 381.304,283.839C381.292,291.438 378.451,298.912 372.659,304.719M242.413,434.955C236.616,440.754 229.131,443.583 221.494,443.608C213.926,443.583 206.46,440.746 200.671,434.955C194.876,429.162 192.034,421.681 192.021,414.084C192.034,406.477 194.876,399.012 200.665,393.215L221.542,372.336L229.096,379.893L242.42,393.207C248.21,399.012 251.049,406.485 251.063,414.084C251.049,421.681 248.21,429.155 242.413,434.955M267.308,76.355C273.09,70.589 280.563,67.746 288.165,67.733C295.766,67.746 303.234,70.579 309.036,76.378C314.826,82.18 317.666,89.655 317.686,97.256C317.666,104.852 314.826,112.323 309.036,118.125L300.785,126.377L213.632,213.532C211.188,203.76 206.136,194.491 198.52,186.887C191.011,179.367 181.871,174.348 172.238,171.873L267.308,76.355ZM392.395,243.233L379.073,229.911L307.897,158.734L328.77,137.858C339.957,126.683 345.61,111.907 345.59,97.256C345.61,82.6 339.957,67.826 328.77,56.643C317.592,45.449 302.807,39.811 288.165,39.823C273.51,39.811 258.733,45.457 247.553,56.649L122.468,182.303C120.676,183.713 118.951,185.246 117.304,186.893C106.123,198.067 100.476,212.852 100.49,227.499C100.476,242.145 106.123,256.924 117.309,268.106L201.806,352.6L180.93,373.471C169.737,384.647 164.096,399.43 164.111,414.084C164.096,428.735 169.744,443.511 180.937,454.696C192.09,465.856 206.846,471.522 221.494,471.514L221.549,471.514C236.179,471.514 250.959,465.885 262.146,454.692L262.151,454.696L392.395,324.449C403.581,313.268 409.233,298.492 409.211,283.839C409.233,269.188 403.581,254.403 392.395,243.233" style="fill:black;fill-rule:nonzero;"/>
        </g>
    </g>
</svg>
