<?xml version="1.0" encoding="UTF-8"?>
<svg width="46px" height="28px" viewBox="0 0 46 28" version="1.1" xmlns="http://www.w3.org/2000/svg" xmlns:xlink="http://www.w3.org/1999/xlink">
    <!-- Generator: Sketch 42 (36781) - http://www.bohemiancoding.com/sketch -->
    <title>Untitled</title>
    <desc>Created with Sketch.</desc>
    <defs></defs>
    <g id="Page-1" stroke="none" stroke-width="1" fill="none" fill-rule="evenodd">
        <path d="M9.036,0.936 L15.948,0.936 L25.164,27 L19.08,27 L16.92,20.664 L8.244,20.664 L6.228,27 L0.504,27 L9.036,0.936 Z M15.768,16.236 L12.528,6.156 L12.384,6.156 L9.18,16.236 L15.768,16.236 Z M42.696,14.472 L42.696,22.32 C42.696,23.328 42.876,23.76 43.812,23.76 C44.136,23.76 44.46,23.688 44.928,23.544 L45.072,26.676 C44.352,27.036 42.768,27.396 41.616,27.396 C39.456,27.396 38.16,26.784 37.764,25.02 C36.576,26.568 34.776,27.432 32.184,27.432 C27.504,27.432 26.604,24.3 26.604,22.428 C26.604,16.704 32.544,15.84 37.368,15.876 L37.368,15.192 C37.368,13.068 37.08,11.772 34.704,11.772 C32.904,11.772 32.22,12.528 31.86,14.364 L27.252,13.464 C27.828,9.936 30.06,7.848 35.172,7.848 C40.176,7.848 42.696,9.792 42.696,14.472 Z M37.404,22.356 L37.404,19.044 L36.54,19.044 C33.948,19.116 32.076,19.62 32.076,21.528 C32.076,22.608 32.544,23.58 34.272,23.58 C35.568,23.58 36.828,22.932 37.404,22.356 Z" id="Aa" fill="#000000"></path>
    </g>
</svg>