<svg xmlns="http://www.w3.org/2000/svg" width="200" height="200" viewBox="0 0 200 200"><g fill="none" fill-rule="evenodd"><circle cx="100" cy="100" r="100" fill="#A3BE8C"/><path fill="#FFF" d="M95.423 121.057l-3.507-9.666H67.451l-3.593 9.666H50L72.07 64h15.227l21.984 57.057H95.423zm-15.74-44.91l-8.896 24.551H88.58l-8.897-24.55zm59.453 44.91v-4.277c-1.426 1.654-3.28 2.951-5.56 3.892-2.281.941-4.79 1.412-7.528 1.412-1.654 0-3.336-.285-5.047-.856a14.561 14.561 0 0 1-4.62-2.523c-1.368-1.112-2.494-2.524-3.378-4.235-.884-1.71-1.326-3.735-1.326-6.073 0-2.395.442-4.448 1.326-6.16.884-1.71 2.01-3.093 3.379-4.148a13.532 13.532 0 0 1 4.619-2.31c1.71-.484 3.393-.727 5.047-.727 2.737 0 5.26.428 7.57 1.283 2.31.856 4.15 2.11 5.518 3.764v-5.56c0-2.11-.827-3.792-2.48-5.047-1.655-1.255-3.85-1.882-6.588-1.882-4.562 0-8.582 1.625-12.061 4.876l-4.106-7.271c2.566-2.224 5.403-3.864 8.511-4.919a29.48 29.48 0 0 1 9.538-1.583c2.339 0 4.591.257 6.758.77 2.167.514 4.092 1.383 5.774 2.61 1.683 1.226 3.023 2.837 4.021 4.833.998 1.996 1.497 4.476 1.497 7.442v26.69h-10.864zm-8.725-6.33c1.768 0 3.436-.3 5.004-.898 1.568-.599 2.809-1.497 3.721-2.695v-5.132c-.912-1.198-2.153-2.096-3.721-2.695-1.568-.599-3.236-.898-5.004-.898-2.167 0-4.007.542-5.518 1.625-1.511 1.084-2.267 2.624-2.267 4.62 0 1.939.756 3.436 2.267 4.49 1.511 1.056 3.35 1.583 5.518 1.583z"/></g></svg>